<mxfile host="app.diagrams.net" modified="2024-06-12T15:34:33.507Z" agent="Mozilla/5.0 (Windows NT 10.0; Win64; x64) AppleWebKit/537.36 (KHTML, like Gecko) Chrome/124.0.0.0 Safari/537.36 OPR/110.0.0.0" version="24.5.3" etag="wuxQfnL0ogVkONgE-UXW" type="github">
  <diagram name="Pagina-1" id="x-3U1FgQSu0-4yC8c0j6">
    <mxGraphModel>
      <root>
        <mxCell id="0" />
        <mxCell id="1" parent="0" />
      </root>
    </mxGraphModel>
  </diagram>
</mxfile>
